<svg width="20" height="20" viewBox="0 0 20 20" fill="none" xmlns="http://www.w3.org/2000/svg">
<path d="M19.2 0H0.8C0.3575 0 0 0.3575 0 0.8V19.2C0 19.6425 0.3575 20 0.8 20H9.8C9.91 20 10 19.91 10 19.8V18.4C10 18.29 9.91 18.2 9.8 18.2H1.8V1.8H18.2V9.8C18.2 9.91 18.29 10 18.4 10H19.8C19.91 10 20 9.91 20 9.8V0.8C20 0.3575 19.6425 0 19.2 0ZM13.5325 12.185L14.8375 10.88C14.8639 10.8534 14.8824 10.82 14.8907 10.7834C14.8991 10.7469 14.8971 10.7088 14.8848 10.6733C14.8726 10.6379 14.8506 10.6066 14.8215 10.5831C14.7924 10.5595 14.7572 10.5446 14.72 10.54L10.235 10.015C10.1075 10 9.9975 10.1075 10.0125 10.2375L10.5375 14.7225C10.5575 14.8875 10.76 14.9575 10.8775 14.84L12.1875 13.53L18.5925 19.935C18.67 20.0125 18.7975 20.0125 18.875 19.935L19.935 18.875C20.0125 18.7975 20.0125 18.67 19.935 18.5925L13.5325 12.185Z" fill="black"/>
</svg>
