<svg width="17" height="20" viewBox="0 0 17 20" fill="none" xmlns="http://www.w3.org/2000/svg">
<g opacity="0.6">
<path d="M1 2.7754V16.9786C1 17.4495 1.18705 17.9011 1.52 18.234C1.85296 18.567 2.30454 18.754 2.7754 18.754H13.4278C13.8987 18.754 14.3503 18.567 14.6832 18.234C15.0162 17.9011 15.2032 17.4495 15.2032 16.9786V6.6298C15.2032 6.39328 15.1559 6.15915 15.0641 5.94116C14.9724 5.72317 14.838 5.52571 14.6688 5.36039L10.7274 1.50599C10.3957 1.18167 9.9503 1.00006 9.48642 1H2.7754C2.30454 1 1.85296 1.18705 1.52 1.52C1.18705 1.85296 1 2.30454 1 2.7754V2.7754Z" stroke="white" stroke-width="1.7754" stroke-linecap="round" stroke-linejoin="round"/>
<path d="M5.43851 10.7648H10.7647" stroke="white" stroke-width="1.7754" stroke-linecap="round" stroke-linejoin="round"/>
<path d="M5.43851 14.3156H8.10161" stroke="white" stroke-width="1.7754" stroke-linecap="round" stroke-linejoin="round"/>
<path d="M9.877 1V4.5508C9.877 5.02167 10.064 5.47325 10.397 5.8062C10.73 6.13915 11.1815 6.3262 11.6524 6.3262H15.2032" stroke="white" stroke-width="1.7754" stroke-linejoin="round"/>
</g>
</svg>
