<svg width="19" height="18" viewBox="0 0 19 18" fill="none" xmlns="http://www.w3.org/2000/svg">
<path d="M8.70833 -0.000244141C7.68471 -0.000244141 6.81229 0.667922 6.48138 1.58309H0V3.16642H6.48217C6.81229 4.08159 7.68471 4.74976 8.70833 4.74976C9.73196 4.74976 10.6044 4.08159 10.9353 3.16642H19V1.58309H10.9345C10.6044 0.667922 9.73275 -0.000244141 8.70833 -0.000244141ZM8.70833 1.58309C9.15404 1.58309 9.5 1.92984 9.5 2.37476C9.5 2.82046 9.15325 3.16642 8.70833 3.16642C8.26262 3.16642 7.91667 2.81967 7.91667 2.37476C7.91667 1.92905 8.26342 1.58309 8.70833 1.58309ZM14.25 6.33309C13.2264 6.33309 12.354 7.00126 12.023 7.91642H0V9.49976H12.0238C12.354 10.4149 13.2264 11.0831 14.25 11.0831C15.2736 11.0831 16.146 10.4149 16.477 9.49976H19V7.91642H16.4762C16.146 7.00126 15.2736 6.33309 14.25 6.33309ZM14.25 7.91642C14.6957 7.91642 15.0417 8.26317 15.0417 8.70809C15.0417 9.1538 14.6949 9.49976 14.25 9.49976C13.8043 9.49976 13.4583 9.15301 13.4583 8.70809C13.4583 8.26238 13.8051 7.91642 14.25 7.91642ZM5.54167 12.6664C4.51804 12.6664 3.64563 13.3346 3.31471 14.2498H0V15.8331H3.3155C3.64562 16.7483 4.51804 17.4164 5.54167 17.4164C6.56529 17.4164 7.43771 16.7483 7.76862 15.8331H19V14.2498H7.76783C7.43771 13.3346 6.56529 12.6664 5.54167 12.6664ZM5.54167 14.2498C5.98738 14.2498 6.33333 14.5965 6.33333 15.0414C6.33333 15.4871 5.98658 15.8331 5.54167 15.8331C5.09596 15.8331 4.75 15.4863 4.75 15.0414C4.75 14.5957 5.09675 14.2498 5.54167 14.2498Z" fill="white"/>
</svg>
